<?xml version="1.0" encoding="utf-8"?>
<!-- Generator: Adobe Illustrator 26.3.1, SVG Export Plug-In . SVG Version: 6.00 Build 0)  -->
<svg version="1.1" id="Layer_1" xmlns="http://www.w3.org/2000/svg" xmlns:xlink="http://www.w3.org/1999/xlink" x="0px"
	y="0px" viewBox="0 0 845.24 539.99" style="enable-background:new 0 0 845.24 539.99;" xml:space="preserve">
	<style type="text/css">
		.st0 {
			fill: rgba(96, 96, 96, 0);
			stroke: #494949;
			stroke-width: 2;
			stroke-miterlimit: 10;
		}

		.st1 {
			fill: #FFFFFF;
		}

		.st2 {
			fill: #E5E5E5;
		}

		.st3 {
			fill: #777777;
		}

		.st4 {
			fill: #C1C1C1;
		}

		.st5 {
			fill: none;
			stroke: #FFFFFF;
			stroke-width: 0.5;
			stroke-miterlimit: 10;
		}

		.st6 {
			fill: #D8D8D8;
		}

		.st7 {
			fill: #EDEDED;
		}

		.st8 {
			opacity: 0.25;
			clip-path: url(#SVGID_00000179616094927582616110000006349580830039221169_);
		}

		.st9 {
			opacity: 0.57;
			fill: #10A181;
		}

		.st10 {
			opacity: 0.57;
			fill: #DE3C4B;
		}

		.st11 {
			opacity: 0.57;
			fill: #1A72AD;
		}

		.st12 {
			fill: #FFC800;
		}

		.st13 {
			fill: none;
			stroke: #898989;
			stroke-width: 0.5;
			stroke-miterlimit: 10;
		}

		.st14 {
			fill: #F5F5F5;
		}

		.st15 {
			fill: #606060;
		}

		.st16 {
			opacity: 0.5;
			fill: #FFFFFF;
		}

		.st17 {
			fill: #444444;
		}

		.st18 {
			fill: none;
			stroke: #FFFFFF;
			stroke-width: 2;
			stroke-linecap: round;
			stroke-linejoin: round;
			stroke-miterlimit: 10;
		}

		.st19 {
			clip-path: url(#SVGID_00000026845862072904513210000009926025311586257792_);
			fill: #FFC800;
		}

		.st20 {
			clip-path: url(#SVGID_00000026845862072904513210000009926025311586257792_);
		}

		.st21 {
			fill: #DBDBDB;
		}

		.st22 {
			fill: none;
			stroke: #6B6B6B;
			stroke-width: 0.75;
			stroke-miterlimit: 10;
		}

		.st23 {
			clip-path: url(#SVGID_00000114772603527828577620000012039895120280393899_);
			fill: #FFC800;
		}

		.st24 {
			fill: #3F3F3F;
		}

		.st25 {
			fill: #474747;
		}

		.st26 {
			fill: #7A7A7A;
		}

		.st27 {
			fill: #FFB000;
		}

		.st28 {
			fill: none;
			stroke: #BCBCBC;
			stroke-miterlimit: 10;
		}

		.st29 {
			fill: #FFCE31;
		}

		.st30 {
			fill: #A8A8A8;
		}

		.st31 {
			fill: #4F4F4F;
		}

		.st32 {
			fill: #8F8F8F;
		}

		.st33 {
			fill: #8A8A8A;
		}

		.st34 {
			fill: none;
			stroke: #8A8A8A;
			stroke-width: 7.5904;
			stroke-miterlimit: 10;
		}

		.st35 {
			fill: none;
			stroke: #8A8A8A;
			stroke-width: 6.8313;
			stroke-miterlimit: 10;
		}

		.st36 {
			fill: none;
			stroke: #FFC800;
			stroke-width: 6.0723;
			stroke-miterlimit: 10;
		}

		.st37 {
			fill: none;
			stroke: #8A8A8A;
			stroke-width: 6.0723;
			stroke-miterlimit: 10;
		}

		.st38 {
			fill: none;
			stroke: #606060;
			stroke-miterlimit: 10;
		}

		.st39 {
			fill: #F4F4F4;
		}

		.st40 {
			fill: #E8E8E8;
		}

		.st41 {
			fill: #6CA3EA;
		}

		.st42 {
			fill: #657283;
		}

		.st43 {
			fill: #B5BFC7;
		}

		.st44 {
			fill: #FCB900;
		}

		.st45 {
			fill: #131F2D;
		}

		.st46 {
			fill: #364154;
		}

		.st47 {
			fill: #FDAB95;
		}

		.st48 {
			fill: #ED7B61;
		}

		.st49 {
			fill: #A88F02;
		}

		.st50 {
			fill: #4B9BA9;
		}

		.st51 {
			fill: #B53C37;
		}

		.st52 {
			fill: #99AEF9;
		}

		.st53 {
			fill: #F3F3F3;
		}

		.st54 {
			opacity: 0.3;
		}

		.st55 {
			fill: #B1B1B1;
		}

		.st56 {
			fill: #CFCFCF;
		}

		.st57 {
			fill: #333333;
		}

		.st58 {
			fill: #C6C6C6;
		}

		.st59 {
			opacity: 0.53;
		}

		.st60 {
			clip-path: url(#SVGID_00000057867145080538737790000007033041084529484673_);
			fill: #FCB900;
		}

		.st61 {
			clip-path: url(#SVGID_00000047057917136682882020000004690779641834945921_);
			fill: #FCB900;
		}

		.st62 {
			clip-path: url(#SVGID_00000160164753686199170640000006142457210903081359_);
			fill: #FCB900;
		}

		.st63 {
			opacity: 0.44;
			fill: #FFFFFF;
		}

		.st64 {
			opacity: 0.48;
		}

		.st65 {
			fill: url(#SVGID_00000076571930663050576270000003810018645395040902_);
		}

		.st66 {
			fill: #91B3FA;
		}

		.st67 {
			fill: url(#SVGID_00000165214349084322492710000000397866286543850138_);
		}

		.st68 {
			opacity: 0.91;
			fill: #FFFFFF;
		}

		.st69 {
			fill: url(#SVGID_00000099631378407295212930000009423643329907092635_);
		}

		.st70 {
			fill: url(#SVGID_00000067211324248580142310000006133341684057818276_);
		}

		.st71 {
			fill: url(#SVGID_00000041258397501243240480000015483031192063394740_);
		}

		.st72 {
			fill: #828282;
		}

		.st73 {
			fill: #EF9D8E;
		}

		.st74 {
			fill: #999999;
		}

		.st75 {
			fill: url(#SVGID_00000134940213046680932350000001659660385686175671_);
		}

		.st76 {
			fill: #252E3A;
		}

		.st77 {
			fill: url(#SVGID_00000065771152184271663670000004535059283622900666_);
		}

		.st78 {
			fill: url(#SVGID_00000091726863066208658410000012961328167429662138_);
		}

		.st79 {
			fill: url(#SVGID_00000082353106626508011850000015803263657493063851_);
		}

		.st80 {
			fill: #BDD0FB;
		}

		.st81 {
			fill: url(#SVGID_00000132054220154329011240000011382108425375300756_);
		}

		.st82 {
			fill: url(#SVGID_00000038379245385997131210000015222710708410565273_);
		}

		.st83 {
			fill: url(#SVGID_00000088126048978739887650000005748826854554238131_);
		}

		.st84 {
			fill: url(#SVGID_00000124874895216669312940000004158316076265867943_);
		}

		.st85 {
			fill: #1E1E1E;
		}

		.st86 {
			fill: #B7B7B7;
		}

		.st87 {
			fill: #EEF2FF;
		}

		.st88 {
			opacity: 0.8;
			fill: #FFFFFF;
		}

		.st89 {
			opacity: 0.37;
			fill: #FFFFFF;
		}

		.st90 {
			fill: url(#SVGID_00000030452826255874890360000001505507574857128598_);
		}

		.st91 {
			fill: url(#SVGID_00000103257329299355502180000016873137590495455895_);
		}

		.st92 {
			fill: url(#SVGID_00000162331785447615670630000012479303273039079298_);
		}

		.st93 {
			fill: url(#SVGID_00000062161688035080399430000014936262609356370082_);
		}

		.st94 {
			fill: url(#SVGID_00000146459296918380118190000008289142820229555893_);
		}

		.st95 {
			fill: url(#SVGID_00000099620446558937339960000011852711038470548127_);
		}

		.st96 {
			fill: url(#SVGID_00000013161849971591529340000011363497597559792802_);
		}

		.st97 {
			fill: url(#SVGID_00000090256091646577080930000008616914948702121656_);
		}

		.st98 {
			fill: url(#SVGID_00000057834848768517866660000012637340798759911043_);
		}

		.st99 {
			fill: url(#SVGID_00000147905363790461041390000003452094954892118657_);
		}

		.st100 {
			fill: url(#SVGID_00000112617309980286552810000014956767198311811744_);
		}

		.st101 {
			fill: url(#SVGID_00000057118246015997394410000000726571638819861646_);
		}

		.st102 {
			fill: url(#SVGID_00000070806199793176160360000006149430422285067923_);
		}

		.st103 {
			fill: url(#SVGID_00000068637838033812566040000012372084396942680743_);
		}

		.st104 {
			fill: url(#SVGID_00000031896081214928627800000018035497705844304029_);
		}

		.st105 {
			fill: url(#SVGID_00000117677725763071204130000017428903477296300732_);
		}

		.st106 {
			fill: url(#SVGID_00000157305227965859898700000005183645959818547115_);
		}

		.st107 {
			fill: url(#SVGID_00000029033409889021044260000002711761528363715768_);
		}

		.st108 {
			fill: url(#SVGID_00000111871293058490951230000017347528363128119464_);
		}

		.st109 {
			fill: url(#SVGID_00000058546953085933306170000018149597129095592102_);
		}

		.st110 {
			fill: url(#SVGID_00000113329472641772945960000005533822654668230830_);
		}

		.st111 {
			fill: url(#SVGID_00000106858181743364196420000000443625942626563243_);
		}

		.st112 {
			fill: url(#SVGID_00000154398225291331223950000008125964856148827013_);
		}

		.st113 {
			fill: url(#SVGID_00000007417625995720873630000001297932526814170259_);
		}

		.st114 {
			fill: url(#SVGID_00000022536281127037781600000006960035689377846170_);
		}

		.st115 {
			fill: url(#SVGID_00000117667149039472903310000004959983111197309588_);
		}

		.st116 {
			fill: url(#SVGID_00000076592356064446753220000006475359048279878829_);
		}

		.st117 {
			fill: url(#SVGID_00000054253298053606505810000011615100222299281576_);
		}

		.st118 {
			fill: url(#SVGID_00000042012469451655148240000001254040644812845487_);
		}

		.st119 {
			fill: url(#SVGID_00000071559057027858859990000009071619796420964484_);
		}

		.st120 {
			fill: url(#SVGID_00000124869288855174129110000012778366924506246793_);
		}

		.st121 {
			fill: url(#SVGID_00000021812053133276431110000015860543367822734230_);
		}

		.st122 {
			fill: url(#SVGID_00000119114724073014298990000014364496241385405833_);
		}

		.st123 {
			fill: url(#SVGID_00000088090472948586408780000012485484080926224015_);
		}

		.st124 {
			fill: url(#SVGID_00000132084550690653028020000009694780152995917460_);
		}

		.st125 {
			fill: #E2A100;
		}

		.st126 {
			opacity: 0.72;
			fill: #FFFFFF;
		}

		.st127 {
			fill: url(#SVGID_00000162342790599117019440000003263764582209688452_);
		}

		.st128 {
			fill: url(#SVGID_00000094618972512024236450000016051291381956470157_);
		}

		.st129 {
			opacity: 0.9;
		}

		.st130 {
			fill-rule: evenodd;
			clip-rule: evenodd;
			fill: #FFFFFF;
		}

		.st131 {
			fill: url(#SVGID_00000138564171554728092380000004671423951359728258_);
		}

		.st132 {
			fill: url(#SVGID_00000179627906698199640670000003769365058741395635_);
		}

		.st133 {
			fill: url(#SVGID_00000181058915918559546930000007036961511575626884_);
		}

		.st134 {
			fill: url(#SVGID_00000043436430414307291870000011544181408190789277_);
		}

		.st135 {
			fill: url(#SVGID_00000163052224994373919180000004614790840109397646_);
		}

		.st136 {
			fill: url(#SVGID_00000088842065490711394730000010320562502111477409_);
		}

		.st137 {
			fill: url(#SVGID_00000168800358111390647670000017249967675403074459_);
		}

		.st138 {
			fill: url(#SVGID_00000060738141362443413130000011125454286443896984_);
		}

		.st139 {
			fill: #D89A00;
		}

		.st140 {
			fill: url(#SVGID_00000064345831310340845990000014249833797165350573_);
		}

		.st141 {
			fill: #AAAAAA;
		}

		.st142 {
			fill-rule: evenodd;
			clip-rule: evenodd;
			fill: #4F4F4F;
		}

		.st143 {
			fill: none;
			stroke: #AAAAAA;
			stroke-miterlimit: 10;
		}

		.st144 {
			fill: #FFCE31;
			stroke: #919191;
			stroke-miterlimit: 10;
		}

		.st145 {
			fill: #BCBCBC;
		}

		.st146 {
			fill: none;
			stroke: #474747;
			stroke-miterlimit: 10;
		}

		.st147 {
			fill: none;
			stroke: #919191;
			stroke-width: 0.75;
			stroke-miterlimit: 10;
		}

		.st148 {
			fill: #919191;
		}
	</style>
	<g>
		<g>
			<path class="st12" d="M402.81,300.97c-4,0-8.07,0.8-11.98,2.5c-15.23,6.64-22.22,24.37-15.61,39.59
			c4.93,11.33,16,18.11,27.63,18.11c4,0,8.07-0.8,11.97-2.5c15.24-6.62,22.21-24.35,15.6-39.58
			C425.5,307.74,414.43,300.97,402.81,300.97z M412.43,353.16c-3.06,1.33-6.28,2-9.58,2c-9.6,0-18.28-5.69-22.11-14.5
			c-5.28-12.16,0.32-26.37,12.49-31.68c3.05-1.32,6.27-2,9.57-2c9.6,0,18.27,5.69,22.09,14.5
			C430.19,333.67,424.59,347.88,412.43,353.16z" />
			<path class="st33" d="M402.82,281.17c-27.52,0-49.91,22.39-49.91,49.91c0,27.51,22.39,49.9,49.91,49.9
			c27.52,0,49.91-22.39,49.91-49.9C452.73,303.56,430.34,281.17,402.82,281.17z M402.82,374.97c-24.2,0-43.89-19.69-43.89-43.89
			c0-24.2,19.69-43.9,43.89-43.9c24.2,0,43.89,19.69,43.89,43.9C446.71,355.28,427.02,374.97,402.82,374.97z" />
		</g>
		<g>
			<path class="st33" d="M472.7,343.87l-6.67-5.81l2.3-5.82l0.91-2.31l-0.99-2.28l-2.48-5.73l6.47-6.03l3.11-2.9l-1.7-3.9
			l-6.44-14.79l-1.7-3.9l-4.24,0.3l-8.81,0.61l-2.49-5.74l-0.99-2.29l-2.32-0.92l-5.82-2.3l0.28-8.84l0.13-4.23l-3.94-1.55
			l-14.94-5.89l-3.95-1.56l-2.79,3.2l-5.82,6.66l-5.82-2.3l-2.31-0.91l-2.28,0.99l-5.75,2.49l-6.05-6.46l-2.9-3.09l-3.89,1.68
			l-14.77,6.4l-3.91,1.69l0.3,4.25l0.62,8.81l-5.73,2.49l-2.29,0.99l-0.91,2.32l-2.3,5.84l-8.85-0.3l-4.24-0.14l-1.56,3.95
			l-5.89,14.95l-1.56,3.95l3.2,2.79l6.66,5.81l-2.29,5.83l-0.91,2.32l1,2.29l2.5,5.73l-6.48,6.04l-3.11,2.9l1.7,3.9l6.43,14.77
			l1.7,3.9l4.24-0.3l8.81-0.62l2.5,5.74l0.99,2.28l2.32,0.91l5.83,2.3l-0.3,8.83l-0.15,4.24l3.95,1.56l14.96,5.91l3.95,1.56
			l2.79-3.2l5.81-6.67l5.81,2.3l2.32,0.92l2.29-0.99l5.74-2.49l6.05,6.45l2.9,3.09l3.89-1.69l14.76-6.41l3.9-1.69l-0.29-4.24
			l-0.61-8.8l5.74-2.49l2.28-0.99l0.91-2.32l2.31-5.85l8.86,0.28l4.24,0.13l1.55-3.95l5.88-14.95l1.55-3.95L472.7,343.87z
			 M462.87,363.36l-13.09-0.42l-3.86,9.78l-9.63,4.19l0.9,13.04l-14.76,6.41l-8.95-9.54l-9.63,4.17l-9.77-3.87l-8.61,9.88
			l-14.96-5.91l0.45-13.08l-9.78-3.86l-4.19-9.64l-13.05,0.92l-6.43-14.77l9.59-8.94l-4.21-9.63l3.84-9.77l-9.85-8.6l5.89-14.95
			l13.1,0.44l3.85-9.79l9.64-4.19l-0.92-13.06l14.77-6.4l8.95,9.55l9.64-4.18l9.77,3.85l8.61-9.86l14.94,5.89l-0.41,13.07l9.76,3.85
			l4.18,9.64l13.05-0.91l6.44,14.79l-9.57,8.92l4.17,9.63l-3.85,9.77l9.87,8.6L462.87,363.36z" />
		</g>
		<g>
			<path class="st12" d="M327.47,207.57c-2.75,0-5.54,0.55-8.22,1.71c-10.46,4.56-15.25,16.73-10.71,27.18
			c3.38,7.78,10.98,12.43,18.96,12.43c2.75,0,5.54-0.55,8.22-1.72c10.46-4.54,15.24-16.71,10.71-27.17
			C343.04,212.22,335.44,207.57,327.47,207.57z M333.32,241.66c-1.86,0.81-3.82,1.22-5.82,1.22c-5.84,0-11.12-3.46-13.45-8.82
			c-3.21-7.39,0.2-16.04,7.6-19.26c1.85-0.8,3.81-1.21,5.82-1.21c5.84,0,11.11,3.46,13.43,8.82
			C344.11,229.81,340.71,238.45,333.32,241.66z" />
			<path class="st33" d="M327.48,192.09c-19.93,0-36.14,16.21-36.14,36.15c0,19.93,16.21,36.14,36.14,36.14
			c19.93,0,36.14-16.21,36.14-36.14C363.62,208.31,347.4,192.09,327.48,192.09z M327.48,258.36c-16.61,0-30.13-13.51-30.13-30.12
			c0-16.61,13.52-30.13,30.13-30.13c16.61,0,30.13,13.52,30.13,30.13C357.6,244.85,344.09,258.36,327.48,258.36z" />
		</g>
		<path class="st33" d="M339.39,182.98l10.26,4.04l-0.28,8.97l6.7,2.64l2.87,6.62l8.96-0.63l4.42,10.15l-6.57,6.13l2.86,6.61
		l-2.65,6.71l6.77,5.9l-4.04,10.26l-8.98-0.29l-2.65,6.72l-6.61,2.87l0.62,8.95l-10.13,4.4l-6.14-6.55l-6.61,2.86l-6.7-2.65
		l-5.91,6.78l-10.27-4.05l0.31-8.98l-6.72-2.65l-2.88-6.62l-8.96,0.63l-4.41-10.14l6.58-6.14l-2.89-6.61l2.64-6.71l-6.76-5.9
		l4.05-10.27l8.99,0.3l2.64-6.72l6.61-2.87l-0.63-8.96l10.14-4.39l6.14,6.55l6.62-2.87l6.7,2.65L339.39,182.98 M337.65,175.83
		l-2.79,3.19l-3.12,3.57l-2.76-1.09l-2.31-0.91l-2.28,0.99l-2.73,1.18l-3.25-3.46l-2.9-3.09l-3.89,1.68l-10.14,4.39l-3.91,1.69
		l0.3,4.25l0.33,4.72l-2.71,1.18l-2.29,0.99l-0.91,2.32l-1.09,2.77l-4.74-0.16l-4.24-0.14l-1.56,3.95l-4.05,10.27l-1.56,3.95
		l3.2,2.79l3.57,3.11l-1.09,2.76l-0.91,2.32l1,2.29l1.18,2.71l-3.47,3.23l-3.11,2.9l1.7,3.9l4.41,10.14l1.7,3.9l4.24-0.3l4.72-0.33
		l1.18,2.71l0.99,2.28l2.32,0.91l2.77,1.09l-0.16,4.73l-0.15,4.24l3.95,1.56l10.27,4.05l3.95,1.56l2.79-3.2l3.11-3.57l2.75,1.09
		l2.32,0.92l2.29-0.99l2.72-1.18l3.25,3.46l2.9,3.09l3.89-1.69l10.13-4.4l3.9-1.69l-0.29-4.24l-0.33-4.71l2.72-1.18l2.28-0.99
		l0.91-2.32l1.1-2.78l4.75,0.15l4.24,0.13l1.55-3.95l4.04-10.26l1.55-3.95l-3.2-2.79l-3.57-3.11l1.09-2.76l0.91-2.31l-0.99-2.28
		l-1.18-2.71l3.46-3.23l3.11-2.9l-1.7-3.9l-4.42-10.15l-1.7-3.9l-4.24,0.3l-4.72,0.33l-1.18-2.72l-0.99-2.29l-2.32-0.92l-2.76-1.09
		l0.15-4.74l0.13-4.23l-3.94-1.55l-10.26-4.04L337.65,175.83L337.65,175.83z" />
		<g>
			<path class="st33" d="M594.5,217.96l-0.45-4.23l-2.03-18.9l-0.45-4.21l-4.12-0.99l-10.88-2.62l-0.86-8.1l-0.26-2.48l-1.94-1.57
			l-6.34-5.12l3.69-10.58l1.39-4l-3.29-2.66l-14.75-11.92l-3.3-2.67l-3.62,2.22l-9.54,5.85l-6.33-5.13l-1.94-1.57l-2.48,0.26
			l-8.12,0.86l-4.86-10.09l-1.84-3.82l-4.21,0.45l-18.87,2l-4.23,0.45l-0.99,4.13l-2.61,10.89l-8.1,0.86l-2.48,0.26l-1.57,1.94
			l-5.12,6.35l-10.56-3.71l-4.01-1.41l-2.67,3.31l-11.93,14.77l-2.66,3.3l2.21,3.62l5.84,9.54l-5.11,6.34l-1.56,1.94l0.26,2.47
			l0.86,8.11l-10.11,4.85l-3.83,1.84l0.45,4.22l2.01,18.89l0.45,4.23l4.14,0.99l10.89,2.6l0.86,8.09l0.26,2.47l1.93,1.56l6.35,5.14
			l-3.71,10.55l-1.41,4l3.3,2.67l14.75,11.93l3.3,2.67l3.62-2.22l9.55-5.86l6.34,5.13l1.94,1.57l2.48-0.26l8.09-0.85l4.86,10.1
			l1.84,3.82l4.22-0.45l18.88-2.01l4.23-0.45l0.99-4.13l2.6-10.88l8.1-0.86l2.48-0.26l1.57-1.94l5.14-6.36l10.6,3.7l4,1.4l2.66-3.3
			l11.9-14.75l2.66-3.3l-2.21-3.62l-5.85-9.56l5.12-6.32l1.57-1.94l-0.26-2.48l-0.86-8.11l10.09-4.82L594.5,217.96z M574.14,221.02
			l1.31,12.34l-7.79,9.62l8.06,13.18l-11.9,14.75l-14.59-5.09l-7.8,9.65l-12.33,1.31l-3.59,15.01l-18.88,2.01l-6.7-13.92l-12.3,1.3
			l-9.65-7.8l-13.18,8.08l-14.75-11.93l5.11-14.56l-9.65-7.8l-1.31-12.32l-15.03-3.58l-2.01-18.89l13.94-6.69l-1.31-12.34l7.77-9.64
			l-8.05-13.15l11.93-14.77l14.57,5.12l7.79-9.65l12.33-1.31l3.6-15.03l18.87-2l6.7,13.9l12.33-1.3l9.63,7.81l13.17-8.08
			l14.75,11.92l-5.08,14.57l9.63,7.78l1.31,12.32l15.01,3.62l2.03,18.9L574.14,221.02z" />
		</g>
		<g>
			<path class="st12" d="M565.36,210.79c-0.67-14.95-7.01-28.88-17.86-39.23c-10.82-10.32-24.97-16-39.86-16
			c-0.86,0-1.74,0.02-2.61,0.06c-31.84,1.42-56.59,28.49-55.17,60.33c0.67,14.95,7.01,28.88,17.86,39.23
			c10.82,10.32,24.97,16,39.86,16c0.86,0,1.74-0.02,2.61-0.06C542.04,269.69,566.79,242.63,565.36,210.79z M509.93,265.1
			c-0.78,0.04-1.56,0.05-2.34,0.05c-27.5,0-50.47-21.73-51.71-49.48c-1.27-28.53,20.9-52.78,49.43-54.06
			c0.78-0.04,1.56-0.05,2.34-0.05c27.5,0,50.47,21.74,51.71,49.49C560.63,239.59,538.46,263.83,509.93,265.1z" />
			<path class="st33" d="M507.66,177.84c-1.25,0-2.52,0.07-3.8,0.2c-19.5,2.1-33.64,19.58-31.54,39.08
			c1.93,18.22,17.33,31.76,35.27,31.76c1.25,0,2.52-0.07,3.79-0.2c19.5-2.07,33.61-19.58,31.55-39.06
			C541,191.38,525.58,177.84,507.66,177.84z M510.74,242.7c-1.05,0.11-2.11,0.17-3.15,0.17c-15.1,0-27.69-11.34-29.29-26.38
			c-0.84-7.84,1.42-15.52,6.37-21.65c4.95-6.13,12-9.97,19.84-10.81c1.04-0.11,2.1-0.17,3.15-0.17c15.11,0,27.7,11.34,29.29,26.39
			C538.65,226.43,526.9,240.98,510.74,242.7z" />
		</g>
	</g>
</svg>